<svg width="307" height="259" viewBox="0 0 307 259" fill="none" xmlns="http://www.w3.org/2000/svg">
<g clip-path="url(#clip0_403_1314)" filter="url(#filter0_dd_403_1314)">
<rect x="111" y="21" width="85" height="110" rx="16" fill="url(#paint0_linear_403_1314)" stroke="url(#paint1_linear_403_1314)" stroke-width="2"/>
<path d="M178.911 76.1077C178.911 74.1433 177.315 72.5538 175.342 72.5538H171.774V69C171.774 60.4196 165.635 53.2415 157.499 51.5904V47.6769C157.499 45.7126 155.903 44.123 153.931 44.123C151.958 44.123 150.362 45.7126 150.362 47.6769V51.5904C142.226 53.2415 136.088 60.4196 136.088 69V72.5538H132.519C130.547 72.5538 128.95 74.1433 128.95 76.1077C128.95 78.072 130.547 79.6615 132.519 79.6615H175.342C177.315 79.6615 178.911 78.072 178.911 76.1077ZM168.205 93.8769H139.656C137.684 93.8769 136.088 95.4664 136.088 97.4307C136.088 99.3951 137.684 100.985 139.656 100.985H168.205C170.178 100.985 171.774 99.3951 171.774 97.4307C171.774 95.4664 170.178 93.8769 168.205 93.8769Z" fill="white"/>
</g>
<path d="M96.4896 193.264C98.2936 193.264 99.8776 192.582 101.132 191.152L99.3496 189.128C98.6676 189.854 97.7656 190.316 96.5996 190.316C94.5976 190.316 93.2556 188.666 93.2556 185.806C93.2556 183.034 94.7736 181.362 96.6656 181.362C97.6776 181.362 98.4256 181.692 99.1296 182.352L100.934 180.284C99.9436 179.25 98.4476 178.414 96.5776 178.414C92.9696 178.414 89.7576 181.164 89.7576 185.938C89.7576 190.778 92.8376 193.264 96.4896 193.264ZM102.98 193H106.368V185.674C107.05 185.058 107.512 184.684 108.282 184.684C109.162 184.684 109.558 185.146 109.558 186.664V193H112.968V186.224C112.968 183.496 111.956 181.802 109.58 181.802C108.084 181.802 107.028 182.55 106.214 183.276L106.368 181.318V177.622H102.98V193ZM120.364 193.264C123.158 193.264 125.732 191.152 125.732 187.522C125.732 183.892 123.158 181.802 120.364 181.802C117.592 181.802 115.018 183.892 115.018 187.522C115.018 191.152 117.592 193.264 120.364 193.264ZM120.364 190.514C119.088 190.514 118.494 189.348 118.494 187.522C118.494 185.718 119.088 184.53 120.364 184.53C121.64 184.53 122.234 185.718 122.234 187.522C122.234 189.348 121.64 190.514 120.364 190.514ZM132.61 193.264C135.404 193.264 137.978 191.152 137.978 187.522C137.978 183.892 135.404 181.802 132.61 181.802C129.838 181.802 127.264 183.892 127.264 187.522C127.264 191.152 129.838 193.264 132.61 193.264ZM132.61 190.514C131.334 190.514 130.74 189.348 130.74 187.522C130.74 185.718 131.334 184.53 132.61 184.53C133.886 184.53 134.48 185.718 134.48 187.522C134.48 189.348 133.886 190.514 132.61 190.514ZM143.297 193.264C146.267 193.264 147.851 191.702 147.851 189.7C147.851 187.896 146.531 186.906 144.859 186.378C143.473 185.938 142.857 185.674 142.857 185.102C142.857 184.618 143.231 184.31 144.023 184.31C144.771 184.31 145.585 184.53 146.377 185.102L147.829 183.188C146.883 182.396 145.519 181.802 143.913 181.802C141.361 181.802 139.689 183.188 139.689 185.256C139.689 186.95 141.009 187.94 142.571 188.512C143.737 188.952 144.661 189.238 144.661 189.898C144.661 190.426 144.287 190.756 143.363 190.756C142.505 190.756 141.515 190.492 140.503 189.7L139.073 191.614C140.173 192.692 141.845 193.264 143.297 193.264ZM154.765 193.264C156.063 193.264 157.559 192.846 158.703 192.032L157.603 189.986C156.833 190.426 156.041 190.668 155.249 190.668C153.863 190.668 152.829 190.03 152.521 188.556H158.967C159.033 188.248 159.099 187.676 159.099 187.06C159.099 184.09 157.559 181.802 154.391 181.802C151.773 181.802 149.221 183.98 149.221 187.522C149.221 191.174 151.641 193.264 154.765 193.264ZM152.477 186.268C152.697 184.992 153.511 184.376 154.479 184.376C155.711 184.376 156.195 185.19 156.195 186.268H152.477ZM170.401 193.264C173.195 193.264 175.769 191.152 175.769 187.522C175.769 183.892 173.195 181.802 170.401 181.802C167.629 181.802 165.055 183.892 165.055 187.522C165.055 191.152 167.629 193.264 170.401 193.264ZM170.401 190.514C169.125 190.514 168.531 189.348 168.531 187.522C168.531 185.718 169.125 184.53 170.401 184.53C171.677 184.53 172.271 185.718 172.271 187.522C172.271 189.348 171.677 190.514 170.401 190.514ZM177.917 193H181.305V186.752C181.877 185.3 182.867 184.772 183.681 184.772C184.165 184.772 184.407 184.816 184.803 184.904L185.441 182.022C185.133 181.868 184.759 181.802 184.121 181.802C183.021 181.802 181.811 182.484 181.019 183.958H180.931L180.689 182.066H177.917V193ZM190.534 193.264C191.568 193.264 192.646 192.714 193.416 191.944H193.482L193.724 193H196.518V177.622H193.108V181.296L193.218 182.924C192.514 182.242 191.788 181.802 190.578 181.802C188.312 181.802 186.068 183.958 186.068 187.522C186.068 191.086 187.828 193.264 190.534 193.264ZM191.436 190.47C190.27 190.47 189.566 189.59 189.566 187.5C189.566 185.454 190.424 184.574 191.392 184.574C191.942 184.574 192.58 184.75 193.108 185.212V189.568C192.602 190.25 192.096 190.47 191.436 190.47ZM204.201 193.264C205.499 193.264 206.995 192.846 208.139 192.032L207.039 189.986C206.269 190.426 205.477 190.668 204.685 190.668C203.299 190.668 202.265 190.03 201.957 188.556H208.403C208.469 188.248 208.535 187.676 208.535 187.06C208.535 184.09 206.995 181.802 203.827 181.802C201.209 181.802 198.657 183.98 198.657 187.522C198.657 191.174 201.077 193.264 204.201 193.264ZM201.913 186.268C202.133 184.992 202.947 184.376 203.915 184.376C205.147 184.376 205.631 185.19 205.631 186.268H201.913ZM210.702 193H214.09V186.752C214.662 185.3 215.652 184.772 216.466 184.772C216.95 184.772 217.192 184.816 217.588 184.904L218.226 182.022C217.918 181.868 217.544 181.802 216.906 181.802C215.806 181.802 214.596 182.484 213.804 183.958H213.716L213.474 182.066H210.702V193Z" fill="#434343"/>
<path d="M18.5791 216.302C17.167 216.302 16.0508 216.773 15.2305 217.717C14.416 218.654 14.0088 219.94 14.0088 221.575C14.0088 223.257 14.4014 224.558 15.1865 225.478C15.9775 226.392 17.1025 226.849 18.5615 226.849C19.458 226.849 20.4805 226.688 21.6289 226.365V227.675C20.7383 228.009 19.6396 228.176 18.333 228.176C16.4404 228.176 14.9785 227.602 13.9473 226.453C12.9219 225.305 12.4092 223.673 12.4092 221.558C12.4092 220.233 12.6553 219.073 13.1475 218.077C13.6455 217.081 14.3604 216.313 15.292 215.774C16.2295 215.235 17.3311 214.966 18.5967 214.966C19.9443 214.966 21.1221 215.212 22.1299 215.704L21.4971 216.987C20.5244 216.53 19.5518 216.302 18.5791 216.302ZM30.8047 228V221.769C30.8047 220.983 30.626 220.397 30.2686 220.011C29.9111 219.624 29.3516 219.431 28.5898 219.431C27.5762 219.431 26.835 219.706 26.3662 220.257C25.9033 220.808 25.6719 221.71 25.6719 222.964V228H24.2129V214.324H25.6719V218.464C25.6719 218.962 25.6484 219.375 25.6016 219.703H25.6895C25.9766 219.24 26.3838 218.877 26.9111 218.613C27.4443 218.344 28.0508 218.209 28.7305 218.209C29.9082 218.209 30.79 218.49 31.376 219.053C31.9678 219.609 32.2637 220.497 32.2637 221.716V228H30.8047ZM39.3389 228.176C37.915 228.176 36.79 227.742 35.9639 226.875C35.1436 226.008 34.7334 224.804 34.7334 223.263C34.7334 221.71 35.1143 220.477 35.876 219.562C36.6436 218.648 37.6719 218.191 38.9609 218.191C40.168 218.191 41.123 218.59 41.8262 219.387C42.5293 220.178 42.8809 221.224 42.8809 222.524V223.447H36.2451C36.2744 224.578 36.5586 225.437 37.0977 226.022C37.6426 226.608 38.4072 226.901 39.3916 226.901C40.4287 226.901 41.4541 226.685 42.4678 226.251V227.552C41.9521 227.774 41.4629 227.933 41 228.026C40.543 228.126 39.9893 228.176 39.3389 228.176ZM38.9434 219.413C38.1699 219.413 37.5518 219.665 37.0889 220.169C36.6318 220.673 36.3623 221.37 36.2803 222.261H41.3164C41.3164 221.341 41.1113 220.638 40.7012 220.151C40.291 219.659 39.7051 219.413 38.9434 219.413ZM49.2266 228.176C47.832 228.176 46.751 227.748 45.9834 226.893C45.2217 226.031 44.8408 224.815 44.8408 223.245C44.8408 221.634 45.2275 220.389 46.001 219.51C46.7803 218.631 47.8877 218.191 49.3232 218.191C49.7861 218.191 50.249 218.241 50.7119 218.341C51.1748 218.44 51.5381 218.558 51.8018 218.692L51.3535 219.932C51.0312 219.803 50.6797 219.697 50.2988 219.615C49.918 219.527 49.5811 219.483 49.2881 219.483C47.3311 219.483 46.3525 220.731 46.3525 223.228C46.3525 224.411 46.5898 225.319 47.0645 225.952C47.5449 226.585 48.2539 226.901 49.1914 226.901C49.9941 226.901 50.8174 226.729 51.6611 226.383V227.675C51.0166 228.009 50.2051 228.176 49.2266 228.176ZM55.3965 223.069C55.6484 222.712 56.0322 222.243 56.5479 221.663L59.6592 218.367H61.3906L57.4883 222.472L61.6631 228H59.8965L56.4951 223.447L55.3965 224.396V228H53.9551V214.324H55.3965V221.575C55.3965 221.897 55.373 222.396 55.3262 223.069H55.3965ZM76.4023 223.175C76.4023 224.745 76.0068 225.973 75.2158 226.857C74.4248 227.736 73.332 228.176 71.9375 228.176C71.0762 228.176 70.3115 227.974 69.6436 227.569C68.9756 227.165 68.46 226.585 68.0967 225.829C67.7334 225.073 67.5518 224.188 67.5518 223.175C67.5518 221.604 67.9443 220.383 68.7295 219.51C69.5146 218.631 70.6045 218.191 71.999 218.191C73.3467 218.191 74.416 218.64 75.207 219.536C76.0039 220.433 76.4023 221.646 76.4023 223.175ZM69.0635 223.175C69.0635 224.405 69.3096 225.343 69.8018 225.987C70.2939 226.632 71.0176 226.954 71.9727 226.954C72.9277 226.954 73.6514 226.635 74.1436 225.996C74.6416 225.352 74.8906 224.411 74.8906 223.175C74.8906 221.95 74.6416 221.021 74.1436 220.389C73.6514 219.75 72.9219 219.431 71.9551 219.431C71 219.431 70.2793 219.744 69.793 220.371C69.3066 220.998 69.0635 221.933 69.0635 223.175ZM81.0781 228L77.4219 218.367H78.9863L81.0605 224.08C81.5293 225.416 81.8047 226.283 81.8867 226.682H81.957C82.0215 226.371 82.2236 225.729 82.5635 224.757C82.9092 223.778 83.6797 221.648 84.875 218.367H86.4395L82.7832 228H81.0781ZM92.0557 228.176C90.6318 228.176 89.5068 227.742 88.6807 226.875C87.8604 226.008 87.4502 224.804 87.4502 223.263C87.4502 221.71 87.8311 220.477 88.5928 219.562C89.3604 218.648 90.3887 218.191 91.6777 218.191C92.8848 218.191 93.8398 218.59 94.543 219.387C95.2461 220.178 95.5977 221.224 95.5977 222.524V223.447H88.9619C88.9912 224.578 89.2754 225.437 89.8145 226.022C90.3594 226.608 91.124 226.901 92.1084 226.901C93.1455 226.901 94.1709 226.685 95.1846 226.251V227.552C94.6689 227.774 94.1797 227.933 93.7168 228.026C93.2598 228.126 92.7061 228.176 92.0557 228.176ZM91.6602 219.413C90.8867 219.413 90.2686 219.665 89.8057 220.169C89.3486 220.673 89.0791 221.37 88.9971 222.261H94.0332C94.0332 221.341 93.8281 220.638 93.418 220.151C93.0078 219.659 92.4219 219.413 91.6602 219.413ZM102.488 218.191C102.916 218.191 103.3 218.227 103.64 218.297L103.438 219.65C103.039 219.562 102.688 219.519 102.383 219.519C101.604 219.519 100.936 219.835 100.379 220.468C99.8281 221.101 99.5527 221.889 99.5527 222.832V228H98.0938V218.367H99.2979L99.4648 220.151H99.5352C99.8926 219.524 100.323 219.041 100.827 218.701C101.331 218.361 101.885 218.191 102.488 218.191ZM116.709 228V221.769C116.709 220.983 116.53 220.397 116.173 220.011C115.815 219.624 115.256 219.431 114.494 219.431C113.48 219.431 112.739 219.706 112.271 220.257C111.808 220.808 111.576 221.71 111.576 222.964V228H110.117V214.324H111.576V218.464C111.576 218.962 111.553 219.375 111.506 219.703H111.594C111.881 219.24 112.288 218.877 112.815 218.613C113.349 218.344 113.955 218.209 114.635 218.209C115.812 218.209 116.694 218.49 117.28 219.053C117.872 219.609 118.168 220.497 118.168 221.716V228H116.709ZM122.545 218.367V224.616C122.545 225.401 122.724 225.987 123.081 226.374C123.438 226.761 123.998 226.954 124.76 226.954C125.768 226.954 126.503 226.679 126.966 226.128C127.435 225.577 127.669 224.678 127.669 223.43V218.367H129.128V228H127.924L127.713 226.708H127.634C127.335 227.183 126.919 227.546 126.386 227.798C125.858 228.05 125.255 228.176 124.575 228.176C123.403 228.176 122.524 227.897 121.938 227.341C121.358 226.784 121.068 225.894 121.068 224.669V218.367H122.545ZM138.822 228V221.769C138.822 220.983 138.644 220.397 138.286 220.011C137.929 219.624 137.369 219.431 136.607 219.431C135.6 219.431 134.861 219.703 134.393 220.248C133.924 220.793 133.689 221.692 133.689 222.946V228H132.23V218.367H133.417L133.654 219.686H133.725C134.023 219.211 134.442 218.845 134.981 218.587C135.521 218.323 136.121 218.191 136.783 218.191C137.943 218.191 138.816 218.473 139.402 219.035C139.988 219.592 140.281 220.485 140.281 221.716V228H138.822ZM149.844 226.708H149.765C149.091 227.687 148.083 228.176 146.741 228.176C145.481 228.176 144.5 227.745 143.797 226.884C143.1 226.022 142.751 224.798 142.751 223.21C142.751 221.622 143.103 220.389 143.806 219.51C144.509 218.631 145.487 218.191 146.741 218.191C148.048 218.191 149.05 218.666 149.747 219.615H149.861L149.8 218.921L149.765 218.244V214.324H151.224V228H150.037L149.844 226.708ZM146.926 226.954C147.922 226.954 148.643 226.685 149.088 226.146C149.539 225.601 149.765 224.725 149.765 223.518V223.21C149.765 221.845 149.536 220.872 149.079 220.292C148.628 219.706 147.904 219.413 146.908 219.413C146.053 219.413 145.396 219.747 144.939 220.415C144.488 221.077 144.263 222.015 144.263 223.228C144.263 224.458 144.488 225.387 144.939 226.014C145.391 226.641 146.053 226.954 146.926 226.954ZM158.721 218.191C159.148 218.191 159.532 218.227 159.872 218.297L159.67 219.65C159.271 219.562 158.92 219.519 158.615 219.519C157.836 219.519 157.168 219.835 156.611 220.468C156.061 221.101 155.785 221.889 155.785 222.832V228H154.326V218.367H155.53L155.697 220.151H155.768C156.125 219.524 156.556 219.041 157.06 218.701C157.563 218.361 158.117 218.191 158.721 218.191ZM165.743 228.176C164.319 228.176 163.194 227.742 162.368 226.875C161.548 226.008 161.138 224.804 161.138 223.263C161.138 221.71 161.519 220.477 162.28 219.562C163.048 218.648 164.076 218.191 165.365 218.191C166.572 218.191 167.527 218.59 168.23 219.387C168.934 220.178 169.285 221.224 169.285 222.524V223.447H162.649C162.679 224.578 162.963 225.437 163.502 226.022C164.047 226.608 164.812 226.901 165.796 226.901C166.833 226.901 167.858 226.685 168.872 226.251V227.552C168.356 227.774 167.867 227.933 167.404 228.026C166.947 228.126 166.394 228.176 165.743 228.176ZM165.348 219.413C164.574 219.413 163.956 219.665 163.493 220.169C163.036 220.673 162.767 221.37 162.685 222.261H167.721C167.721 221.341 167.516 220.638 167.105 220.151C166.695 219.659 166.109 219.413 165.348 219.413ZM178.338 226.708H178.259C177.585 227.687 176.577 228.176 175.235 228.176C173.976 228.176 172.994 227.745 172.291 226.884C171.594 226.022 171.245 224.798 171.245 223.21C171.245 221.622 171.597 220.389 172.3 219.51C173.003 218.631 173.981 218.191 175.235 218.191C176.542 218.191 177.544 218.666 178.241 219.615H178.355L178.294 218.921L178.259 218.244V214.324H179.718V228H178.531L178.338 226.708ZM175.42 226.954C176.416 226.954 177.137 226.685 177.582 226.146C178.033 225.601 178.259 224.725 178.259 223.518V223.21C178.259 221.845 178.03 220.872 177.573 220.292C177.122 219.706 176.398 219.413 175.402 219.413C174.547 219.413 173.891 219.747 173.434 220.415C172.982 221.077 172.757 222.015 172.757 223.228C172.757 224.458 172.982 225.387 173.434 226.014C173.885 226.641 174.547 226.954 175.42 226.954ZM189.034 225.372C189.034 226.269 188.7 226.96 188.032 227.446C187.364 227.933 186.427 228.176 185.22 228.176C183.942 228.176 182.946 227.974 182.231 227.569V226.216C182.694 226.45 183.189 226.635 183.717 226.77C184.25 226.904 184.763 226.972 185.255 226.972C186.017 226.972 186.603 226.852 187.013 226.611C187.423 226.365 187.628 225.993 187.628 225.495C187.628 225.12 187.464 224.801 187.136 224.537C186.813 224.268 186.181 223.951 185.237 223.588C184.341 223.254 183.702 222.964 183.321 222.718C182.946 222.466 182.665 222.182 182.478 221.865C182.296 221.549 182.205 221.171 182.205 220.731C182.205 219.946 182.524 219.328 183.163 218.877C183.802 218.42 184.678 218.191 185.791 218.191C186.828 218.191 187.842 218.402 188.832 218.824L188.313 220.011C187.347 219.612 186.471 219.413 185.686 219.413C184.994 219.413 184.473 219.521 184.121 219.738C183.77 219.955 183.594 220.254 183.594 220.635C183.594 220.893 183.658 221.112 183.787 221.294C183.922 221.476 184.136 221.648 184.429 221.812C184.722 221.977 185.284 222.214 186.116 222.524C187.259 222.94 188.029 223.359 188.428 223.781C188.832 224.203 189.034 224.733 189.034 225.372ZM204.406 223.175C204.406 224.745 204.011 225.973 203.22 226.857C202.429 227.736 201.336 228.176 199.941 228.176C199.08 228.176 198.315 227.974 197.647 227.569C196.979 227.165 196.464 226.585 196.101 225.829C195.737 225.073 195.556 224.188 195.556 223.175C195.556 221.604 195.948 220.383 196.733 219.51C197.519 218.631 198.608 218.191 200.003 218.191C201.351 218.191 202.42 218.64 203.211 219.536C204.008 220.433 204.406 221.646 204.406 223.175ZM197.067 223.175C197.067 224.405 197.313 225.343 197.806 225.987C198.298 226.632 199.021 226.954 199.977 226.954C200.932 226.954 201.655 226.635 202.147 225.996C202.646 225.352 202.895 224.411 202.895 223.175C202.895 221.95 202.646 221.021 202.147 220.389C201.655 219.75 200.926 219.431 199.959 219.431C199.004 219.431 198.283 219.744 197.797 220.371C197.311 220.998 197.067 221.933 197.067 223.175ZM211.314 219.501H208.862V228H207.403V219.501H205.681V218.842L207.403 218.314V217.778C207.403 215.411 208.438 214.228 210.506 214.228C211.016 214.228 211.613 214.33 212.299 214.535L211.921 215.704C211.358 215.522 210.878 215.432 210.479 215.432C209.929 215.432 209.521 215.616 209.258 215.985C208.994 216.349 208.862 216.935 208.862 217.743V218.367H211.314V219.501ZM230.026 228V221.733C230.026 220.966 229.862 220.392 229.534 220.011C229.206 219.624 228.696 219.431 228.005 219.431C227.097 219.431 226.426 219.691 225.992 220.213C225.559 220.734 225.342 221.537 225.342 222.621V228H223.883V221.733C223.883 220.966 223.719 220.392 223.391 220.011C223.062 219.624 222.55 219.431 221.853 219.431C220.938 219.431 220.268 219.706 219.84 220.257C219.418 220.802 219.207 221.698 219.207 222.946V228H217.748V218.367H218.935L219.172 219.686H219.242C219.518 219.217 219.904 218.851 220.402 218.587C220.906 218.323 221.469 218.191 222.09 218.191C223.596 218.191 224.58 218.736 225.043 219.826H225.113C225.4 219.322 225.816 218.924 226.361 218.631C226.906 218.338 227.527 218.191 228.225 218.191C229.314 218.191 230.129 218.473 230.668 219.035C231.213 219.592 231.485 220.485 231.485 221.716V228H230.026ZM238.569 228.176C237.146 228.176 236.021 227.742 235.194 226.875C234.374 226.008 233.964 224.804 233.964 223.263C233.964 221.71 234.345 220.477 235.106 219.562C235.874 218.648 236.902 218.191 238.191 218.191C239.398 218.191 240.354 218.59 241.057 219.387C241.76 220.178 242.111 221.224 242.111 222.524V223.447H235.476C235.505 224.578 235.789 225.437 236.328 226.022C236.873 226.608 237.638 226.901 238.622 226.901C239.659 226.901 240.685 226.685 241.698 226.251V227.552C241.183 227.774 240.693 227.933 240.23 228.026C239.773 228.126 239.22 228.176 238.569 228.176ZM238.174 219.413C237.4 219.413 236.782 219.665 236.319 220.169C235.862 220.673 235.593 221.37 235.511 222.261H240.547C240.547 221.341 240.342 220.638 239.932 220.151C239.521 219.659 238.936 219.413 238.174 219.413ZM251.199 228V221.769C251.199 220.983 251.021 220.397 250.663 220.011C250.306 219.624 249.746 219.431 248.984 219.431C247.977 219.431 247.238 219.703 246.77 220.248C246.301 220.793 246.066 221.692 246.066 222.946V228H244.607V218.367H245.794L246.031 219.686H246.102C246.4 219.211 246.819 218.845 247.358 218.587C247.897 218.323 248.498 218.191 249.16 218.191C250.32 218.191 251.193 218.473 251.779 219.035C252.365 219.592 252.658 220.485 252.658 221.716V228H251.199ZM257.035 218.367V224.616C257.035 225.401 257.214 225.987 257.571 226.374C257.929 226.761 258.488 226.954 259.25 226.954C260.258 226.954 260.993 226.679 261.456 226.128C261.925 225.577 262.159 224.678 262.159 223.43V218.367H263.618V228H262.414L262.203 226.708H262.124C261.825 227.183 261.409 227.546 260.876 227.798C260.349 228.05 259.745 228.176 259.065 228.176C257.894 228.176 257.015 227.897 256.429 227.341C255.849 226.784 255.559 225.894 255.559 224.669V218.367H257.035ZM272.935 225.372C272.935 226.269 272.601 226.96 271.933 227.446C271.265 227.933 270.327 228.176 269.12 228.176C267.843 228.176 266.847 227.974 266.132 227.569V226.216C266.595 226.45 267.09 226.635 267.617 226.77C268.15 226.904 268.663 226.972 269.155 226.972C269.917 226.972 270.503 226.852 270.913 226.611C271.323 226.365 271.528 225.993 271.528 225.495C271.528 225.12 271.364 224.801 271.036 224.537C270.714 224.268 270.081 223.951 269.138 223.588C268.241 223.254 267.603 222.964 267.222 222.718C266.847 222.466 266.565 222.182 266.378 221.865C266.196 221.549 266.105 221.171 266.105 220.731C266.105 219.946 266.425 219.328 267.063 218.877C267.702 218.42 268.578 218.191 269.691 218.191C270.729 218.191 271.742 218.402 272.732 218.824L272.214 220.011C271.247 219.612 270.371 219.413 269.586 219.413C268.895 219.413 268.373 219.521 268.021 219.738C267.67 219.955 267.494 220.254 267.494 220.635C267.494 220.893 267.559 221.112 267.688 221.294C267.822 221.476 268.036 221.648 268.329 221.812C268.622 221.977 269.185 222.214 270.017 222.524C271.159 222.94 271.93 223.359 272.328 223.781C272.732 224.203 272.935 224.733 272.935 225.372ZM283.104 226.972C283.361 226.972 283.61 226.954 283.851 226.919C284.091 226.878 284.281 226.837 284.422 226.796V227.912C284.264 227.988 284.029 228.05 283.719 228.097C283.414 228.149 283.139 228.176 282.893 228.176C281.029 228.176 280.098 227.194 280.098 225.231V219.501H278.718V218.798L280.098 218.191L280.713 216.135H281.557V218.367H284.352V219.501H281.557V225.17C281.557 225.75 281.694 226.195 281.97 226.506C282.245 226.816 282.623 226.972 283.104 226.972ZM294.67 223.175C294.67 224.745 294.274 225.973 293.483 226.857C292.692 227.736 291.6 228.176 290.205 228.176C289.344 228.176 288.579 227.974 287.911 227.569C287.243 227.165 286.728 226.585 286.364 225.829C286.001 225.073 285.819 224.188 285.819 223.175C285.819 221.604 286.212 220.383 286.997 219.51C287.782 218.631 288.872 218.191 290.267 218.191C291.614 218.191 292.684 218.64 293.475 219.536C294.271 220.433 294.67 221.646 294.67 223.175ZM287.331 223.175C287.331 224.405 287.577 225.343 288.069 225.987C288.562 226.632 289.285 226.954 290.24 226.954C291.195 226.954 291.919 226.635 292.411 225.996C292.909 225.352 293.158 224.411 293.158 223.175C293.158 221.95 292.909 221.021 292.411 220.389C291.919 219.75 291.189 219.431 290.223 219.431C289.268 219.431 288.547 219.744 288.061 220.371C287.574 220.998 287.331 221.933 287.331 223.175ZM64.8799 253.176C64.2529 253.176 63.6787 253.062 63.1572 252.833C62.6416 252.599 62.208 252.241 61.8564 251.761H61.751C61.8213 252.323 61.8564 252.856 61.8564 253.36V257.324H60.3975V243.367H61.584L61.7861 244.686H61.8564C62.2314 244.158 62.668 243.777 63.166 243.543C63.6641 243.309 64.2354 243.191 64.8799 243.191C66.1572 243.191 67.1416 243.628 67.833 244.501C68.5303 245.374 68.8789 246.599 68.8789 248.175C68.8789 249.757 68.5244 250.987 67.8154 251.866C67.1123 252.739 66.1338 253.176 64.8799 253.176ZM64.6689 244.431C63.6846 244.431 62.9727 244.703 62.5332 245.248C62.0938 245.793 61.8682 246.66 61.8564 247.85V248.175C61.8564 249.528 62.082 250.498 62.5332 251.084C62.9844 251.664 63.708 251.954 64.7041 251.954C65.5361 251.954 66.1865 251.617 66.6553 250.943C67.1299 250.27 67.3672 249.341 67.3672 248.157C67.3672 246.956 67.1299 246.036 66.6553 245.397C66.1865 244.753 65.5244 244.431 64.6689 244.431ZM72.8955 253H71.4365V243.367H72.8955V253ZM71.3135 240.757C71.3135 240.423 71.3955 240.18 71.5596 240.027C71.7236 239.869 71.9287 239.79 72.1748 239.79C72.4092 239.79 72.6113 239.869 72.7812 240.027C72.9512 240.186 73.0361 240.429 73.0361 240.757C73.0361 241.085 72.9512 241.331 72.7812 241.495C72.6113 241.653 72.4092 241.732 72.1748 241.732C71.9287 241.732 71.7236 241.653 71.5596 241.495C71.3955 241.331 71.3135 241.085 71.3135 240.757ZM79.8389 253.176C78.4443 253.176 77.3633 252.748 76.5957 251.893C75.834 251.031 75.4531 249.815 75.4531 248.245C75.4531 246.634 75.8398 245.389 76.6133 244.51C77.3926 243.631 78.5 243.191 79.9355 243.191C80.3984 243.191 80.8613 243.241 81.3242 243.341C81.7871 243.44 82.1504 243.558 82.4141 243.692L81.9658 244.932C81.6436 244.803 81.292 244.697 80.9111 244.615C80.5303 244.527 80.1934 244.483 79.9004 244.483C77.9434 244.483 76.9648 245.731 76.9648 248.228C76.9648 249.411 77.2021 250.319 77.6768 250.952C78.1572 251.585 78.8662 251.901 79.8037 251.901C80.6064 251.901 81.4297 251.729 82.2734 251.383V252.675C81.6289 253.009 80.8174 253.176 79.8389 253.176ZM86.0088 248.069C86.2607 247.712 86.6445 247.243 87.1602 246.663L90.2715 243.367H92.0029L88.1006 247.472L92.2754 253H90.5088L87.1074 248.447L86.0088 249.396V253H84.5674V239.324H86.0088V246.575C86.0088 246.897 85.9854 247.396 85.9385 248.069H86.0088ZM97.1709 243.367H98.7354L100.845 248.86C101.308 250.114 101.595 251.02 101.706 251.576H101.776C101.853 251.277 102.011 250.768 102.251 250.047C102.497 249.32 103.294 247.094 104.642 243.367H106.206L102.066 254.336C101.656 255.42 101.176 256.188 100.625 256.639C100.08 257.096 99.4092 257.324 98.6123 257.324C98.167 257.324 97.7275 257.274 97.2939 257.175V256.006C97.6162 256.076 97.9766 256.111 98.375 256.111C99.377 256.111 100.092 255.549 100.52 254.424L101.056 253.053L97.1709 243.367ZM116.085 248.175C116.085 249.745 115.689 250.973 114.898 251.857C114.107 252.736 113.015 253.176 111.62 253.176C110.759 253.176 109.994 252.974 109.326 252.569C108.658 252.165 108.143 251.585 107.779 250.829C107.416 250.073 107.234 249.188 107.234 248.175C107.234 246.604 107.627 245.383 108.412 244.51C109.197 243.631 110.287 243.191 111.682 243.191C113.029 243.191 114.099 243.64 114.89 244.536C115.687 245.433 116.085 246.646 116.085 248.175ZM108.746 248.175C108.746 249.405 108.992 250.343 109.484 250.987C109.977 251.632 110.7 251.954 111.655 251.954C112.61 251.954 113.334 251.635 113.826 250.996C114.324 250.352 114.573 249.411 114.573 248.175C114.573 246.95 114.324 246.021 113.826 245.389C113.334 244.75 112.604 244.431 111.638 244.431C110.683 244.431 109.962 244.744 109.476 245.371C108.989 245.998 108.746 246.933 108.746 248.175ZM120.022 243.367V249.616C120.022 250.401 120.201 250.987 120.559 251.374C120.916 251.761 121.476 251.954 122.237 251.954C123.245 251.954 123.98 251.679 124.443 251.128C124.912 250.577 125.146 249.678 125.146 248.43V243.367H126.605V253H125.401L125.19 251.708H125.111C124.812 252.183 124.396 252.546 123.863 252.798C123.336 253.05 122.732 253.176 122.053 253.176C120.881 253.176 120.002 252.897 119.416 252.341C118.836 251.784 118.546 250.894 118.546 249.669V243.367H120.022ZM134.103 243.191C134.53 243.191 134.914 243.227 135.254 243.297L135.052 244.65C134.653 244.562 134.302 244.519 133.997 244.519C133.218 244.519 132.55 244.835 131.993 245.468C131.442 246.101 131.167 246.889 131.167 247.832V253H129.708V243.367H130.912L131.079 245.151H131.149C131.507 244.524 131.938 244.041 132.441 243.701C132.945 243.361 133.499 243.191 134.103 243.191ZM146.073 244.501H143.621V253H142.162V244.501H140.439V243.842L142.162 243.314V242.778C142.162 240.411 143.196 239.228 145.265 239.228C145.774 239.228 146.372 239.33 147.058 239.535L146.68 240.704C146.117 240.522 145.637 240.432 145.238 240.432C144.688 240.432 144.28 240.616 144.017 240.985C143.753 241.349 143.621 241.935 143.621 242.743V243.367H146.073V244.501ZM153.755 253L153.465 251.629H153.395C152.914 252.232 152.434 252.643 151.953 252.859C151.479 253.07 150.884 253.176 150.169 253.176C149.214 253.176 148.464 252.93 147.919 252.438C147.38 251.945 147.11 251.245 147.11 250.337C147.11 248.392 148.666 247.372 151.777 247.278L153.412 247.226V246.628C153.412 245.872 153.248 245.315 152.92 244.958C152.598 244.595 152.079 244.413 151.364 244.413C150.562 244.413 149.653 244.659 148.64 245.151L148.191 244.035C148.666 243.777 149.185 243.575 149.747 243.429C150.315 243.282 150.884 243.209 151.452 243.209C152.601 243.209 153.45 243.464 154.001 243.974C154.558 244.483 154.836 245.301 154.836 246.426V253H153.755ZM150.459 251.972C151.367 251.972 152.079 251.723 152.595 251.225C153.116 250.727 153.377 250.029 153.377 249.133V248.263L151.918 248.324C150.758 248.365 149.92 248.547 149.404 248.869C148.895 249.186 148.64 249.681 148.64 250.354C148.64 250.882 148.798 251.283 149.114 251.559C149.437 251.834 149.885 251.972 150.459 251.972ZM159.96 253L156.304 243.367H157.868L159.942 249.08C160.411 250.416 160.687 251.283 160.769 251.682H160.839C160.903 251.371 161.105 250.729 161.445 249.757C161.791 248.778 162.562 246.648 163.757 243.367H165.321L161.665 253H159.96ZM175.183 248.175C175.183 249.745 174.787 250.973 173.996 251.857C173.205 252.736 172.112 253.176 170.718 253.176C169.856 253.176 169.092 252.974 168.424 252.569C167.756 252.165 167.24 251.585 166.877 250.829C166.514 250.073 166.332 249.188 166.332 248.175C166.332 246.604 166.725 245.383 167.51 244.51C168.295 243.631 169.385 243.191 170.779 243.191C172.127 243.191 173.196 243.64 173.987 244.536C174.784 245.433 175.183 246.646 175.183 248.175ZM167.844 248.175C167.844 249.405 168.09 250.343 168.582 250.987C169.074 251.632 169.798 251.954 170.753 251.954C171.708 251.954 172.432 251.635 172.924 250.996C173.422 250.352 173.671 249.411 173.671 248.175C173.671 246.95 173.422 246.021 172.924 245.389C172.432 244.75 171.702 244.431 170.735 244.431C169.78 244.431 169.06 244.744 168.573 245.371C168.087 245.998 167.844 246.933 167.844 248.175ZM182.144 243.191C182.571 243.191 182.955 243.227 183.295 243.297L183.093 244.65C182.694 244.562 182.343 244.519 182.038 244.519C181.259 244.519 180.591 244.835 180.034 245.468C179.483 246.101 179.208 246.889 179.208 247.832V253H177.749V243.367H178.953L179.12 245.151H179.19C179.548 244.524 179.979 244.041 180.482 243.701C180.986 243.361 181.54 243.191 182.144 243.191ZM186.556 253H185.097V243.367H186.556V253ZM184.974 240.757C184.974 240.423 185.056 240.18 185.22 240.027C185.384 239.869 185.589 239.79 185.835 239.79C186.069 239.79 186.271 239.869 186.441 240.027C186.611 240.186 186.696 240.429 186.696 240.757C186.696 241.085 186.611 241.331 186.441 241.495C186.271 241.653 186.069 241.732 185.835 241.732C185.589 241.732 185.384 241.653 185.22 241.495C185.056 241.331 184.974 241.085 184.974 240.757ZM192.761 251.972C193.019 251.972 193.268 251.954 193.508 251.919C193.748 251.878 193.938 251.837 194.079 251.796V252.912C193.921 252.988 193.687 253.05 193.376 253.097C193.071 253.149 192.796 253.176 192.55 253.176C190.687 253.176 189.755 252.194 189.755 250.231V244.501H188.375V243.798L189.755 243.191L190.37 241.135H191.214V243.367H194.009V244.501H191.214V250.17C191.214 250.75 191.352 251.195 191.627 251.506C191.902 251.816 192.28 251.972 192.761 251.972ZM200.082 253.176C198.658 253.176 197.533 252.742 196.707 251.875C195.887 251.008 195.477 249.804 195.477 248.263C195.477 246.71 195.857 245.477 196.619 244.562C197.387 243.648 198.415 243.191 199.704 243.191C200.911 243.191 201.866 243.59 202.569 244.387C203.272 245.178 203.624 246.224 203.624 247.524V248.447H196.988C197.018 249.578 197.302 250.437 197.841 251.022C198.386 251.608 199.15 251.901 200.135 251.901C201.172 251.901 202.197 251.685 203.211 251.251V252.552C202.695 252.774 202.206 252.933 201.743 253.026C201.286 253.126 200.732 253.176 200.082 253.176ZM199.687 244.413C198.913 244.413 198.295 244.665 197.832 245.169C197.375 245.673 197.105 246.37 197.023 247.261H202.06C202.06 246.341 201.854 245.638 201.444 245.151C201.034 244.659 200.448 244.413 199.687 244.413ZM215.138 244.501H212.686V253H211.227V244.501H209.504V243.842L211.227 243.314V242.778C211.227 240.411 212.261 239.228 214.329 239.228C214.839 239.228 215.437 239.33 216.122 239.535L215.744 240.704C215.182 240.522 214.701 240.432 214.303 240.432C213.752 240.432 213.345 240.616 213.081 240.985C212.817 241.349 212.686 241.935 212.686 242.743V243.367H215.138V244.501ZM225.21 248.175C225.21 249.745 224.814 250.973 224.023 251.857C223.232 252.736 222.14 253.176 220.745 253.176C219.884 253.176 219.119 252.974 218.451 252.569C217.783 252.165 217.268 251.585 216.904 250.829C216.541 250.073 216.359 249.188 216.359 248.175C216.359 246.604 216.752 245.383 217.537 244.51C218.322 243.631 219.412 243.191 220.807 243.191C222.154 243.191 223.224 243.64 224.015 244.536C224.812 245.433 225.21 246.646 225.21 248.175ZM217.871 248.175C217.871 249.405 218.117 250.343 218.609 250.987C219.102 251.632 219.825 251.954 220.78 251.954C221.735 251.954 222.459 251.635 222.951 250.996C223.449 250.352 223.698 249.411 223.698 248.175C223.698 246.95 223.449 246.021 222.951 245.389C222.459 244.75 221.729 244.431 220.763 244.431C219.808 244.431 219.087 244.744 218.601 245.371C218.114 245.998 217.871 246.933 217.871 248.175ZM236.091 248.175C236.091 249.745 235.695 250.973 234.904 251.857C234.113 252.736 233.021 253.176 231.626 253.176C230.765 253.176 230 252.974 229.332 252.569C228.664 252.165 228.148 251.585 227.785 250.829C227.422 250.073 227.24 249.188 227.24 248.175C227.24 246.604 227.633 245.383 228.418 244.51C229.203 243.631 230.293 243.191 231.688 243.191C233.035 243.191 234.104 243.64 234.896 244.536C235.692 245.433 236.091 246.646 236.091 248.175ZM228.752 248.175C228.752 249.405 228.998 250.343 229.49 250.987C229.982 251.632 230.706 251.954 231.661 251.954C232.616 251.954 233.34 251.635 233.832 250.996C234.33 250.352 234.579 249.411 234.579 248.175C234.579 246.95 234.33 246.021 233.832 245.389C233.34 244.75 232.61 244.431 231.644 244.431C230.688 244.431 229.968 244.744 229.481 245.371C228.995 245.998 228.752 246.933 228.752 248.175ZM245.214 251.708H245.135C244.461 252.687 243.453 253.176 242.111 253.176C240.852 253.176 239.87 252.745 239.167 251.884C238.47 251.022 238.121 249.798 238.121 248.21C238.121 246.622 238.473 245.389 239.176 244.51C239.879 243.631 240.857 243.191 242.111 243.191C243.418 243.191 244.42 243.666 245.117 244.615H245.231L245.17 243.921L245.135 243.244V239.324H246.594V253H245.407L245.214 251.708ZM242.296 251.954C243.292 251.954 244.013 251.685 244.458 251.146C244.909 250.601 245.135 249.725 245.135 248.518V248.21C245.135 246.845 244.906 245.872 244.449 245.292C243.998 244.706 243.274 244.413 242.278 244.413C241.423 244.413 240.767 244.747 240.31 245.415C239.858 246.077 239.633 247.015 239.633 248.228C239.633 249.458 239.858 250.387 240.31 251.014C240.761 251.641 241.423 251.954 242.296 251.954Z" fill="#9E9E9E"/>
<defs>
<filter id="filter0_dd_403_1314" x="70" y="0" width="167" height="192" filterUnits="userSpaceOnUse" color-interpolation-filters="sRGB">
<feFlood flood-opacity="0" result="BackgroundImageFix"/>
<feColorMatrix in="SourceAlpha" type="matrix" values="0 0 0 0 0 0 0 0 0 0 0 0 0 0 0 0 0 0 127 0" result="hardAlpha"/>
<feOffset dy="20"/>
<feGaussianBlur stdDeviation="20"/>
<feColorMatrix type="matrix" values="0 0 0 0 1 0 0 0 0 0.680498 0 0 0 0 0 0 0 0 0.29 0"/>
<feBlend mode="normal" in2="BackgroundImageFix" result="effect1_dropShadow_403_1314"/>
<feColorMatrix in="SourceAlpha" type="matrix" values="0 0 0 0 0 0 0 0 0 0 0 0 0 0 0 0 0 0 127 0" result="hardAlpha"/>
<feOffset dy="5"/>
<feGaussianBlur stdDeviation="5"/>
<feColorMatrix type="matrix" values="0 0 0 0 1 0 0 0 0 0.680498 0 0 0 0 0 0 0 0 0.26 0"/>
<feBlend mode="normal" in2="effect1_dropShadow_403_1314" result="effect2_dropShadow_403_1314"/>
<feBlend mode="normal" in="SourceGraphic" in2="effect2_dropShadow_403_1314" result="shape"/>
</filter>
<linearGradient id="paint0_linear_403_1314" x1="153.5" y1="-22.8025" x2="153.5" y2="169.452" gradientUnits="userSpaceOnUse">
<stop offset="0.630208" stop-color="#FFAE00"/>
<stop offset="1" stop-color="#FFCD1E"/>
</linearGradient>
<linearGradient id="paint1_linear_403_1314" x1="153.5" y1="20" x2="153.5" y2="132" gradientUnits="userSpaceOnUse">
<stop stop-color="#FF9F00"/>
<stop offset="1" stop-color="#FFB800"/>
</linearGradient>
<clipPath id="clip0_403_1314">
<rect width="87" height="112" fill="white" transform="translate(110 20)"/>
</clipPath>
</defs>
</svg>
