<svg width="307" height="259" viewBox="0 0 307 259" fill="none" xmlns="http://www.w3.org/2000/svg">
<g filter="url(#filter0_dd_403_1346)">
<path d="M98.5 76C98.5 45.7742 123.274 21 153.5 21C183.725 21 208.5 45.7742 208.5 76C208.5 90.9858 202.238 104.582 192.462 114.503L153.5 127.663L114.538 114.503C104.762 104.582 98.5 90.9857 98.5 76ZM129.531 76C129.531 89.2179 140.282 99.9688 153.5 99.9688C166.718 99.9688 177.469 89.2179 177.469 76C177.469 62.7821 166.718 52.0312 153.5 52.0312C140.282 52.0312 129.531 62.7821 129.531 76Z" fill="url(#paint0_linear_403_1346)" stroke="url(#paint1_linear_403_1346)" stroke-width="2"/>
<path d="M98.5 76C98.5 45.7742 123.274 21 153.5 21C183.725 21 208.5 45.7742 208.5 76C208.5 90.9858 202.238 104.582 192.462 114.503L153.5 127.663L114.538 114.503C104.762 104.582 98.5 90.9857 98.5 76ZM129.531 76C129.531 89.2179 140.282 99.9688 153.5 99.9688C166.718 99.9688 177.469 89.2179 177.469 76C177.469 62.7821 166.718 52.0312 153.5 52.0312C140.282 52.0312 129.531 62.7821 129.531 76Z" fill="url(#paint2_linear_403_1346)" stroke="url(#paint3_linear_403_1346)" stroke-width="2"/>
<path d="M153.5 115.375C143.656 115.375 143.656 108.812 133.813 108.812C123.969 108.812 123.969 115.441 113.994 115.375C124.1 125.481 138.078 132 153.5 132C168.922 132 182.9 125.481 193.006 115.375C183.031 115.441 183.097 108.812 173.188 108.812C163.344 108.812 163.344 115.375 153.5 115.375ZM123.007 86.8051C121.726 85.5234 119.649 85.5234 118.367 86.8051C117.086 88.0867 117.086 90.1633 118.367 91.445L124.93 98.0075C126.212 99.2891 128.288 99.2891 129.57 98.0075C130.852 96.7258 130.852 94.6492 129.57 93.3676L123.007 86.8051ZM153.5 46.4687H166.625C168.439 46.4687 169.906 45.0011 169.906 43.1874C169.906 41.3738 168.439 39.9062 166.625 39.9062H153.5C151.686 39.9062 150.219 41.3738 150.219 43.1874C150.219 45.0011 151.686 46.4687 153.5 46.4687ZM182.07 98.0073L188.632 91.4448C189.914 90.1631 189.914 88.0865 188.632 86.8049C187.351 85.5232 185.274 85.5232 183.992 86.8049L177.43 93.3674C176.148 94.649 176.148 96.7256 177.43 98.0073C178.712 99.2891 180.788 99.2891 182.07 98.0073ZM183.993 65.1948C185.275 66.4764 187.351 66.4764 188.633 65.1948C189.914 63.9131 189.914 61.8365 188.633 60.5549L182.07 53.9924C180.788 52.7107 178.712 52.7107 177.43 53.9924C176.149 55.274 176.149 57.3506 177.43 58.6323L183.993 65.1948ZM123.007 65.1948L129.57 58.6323C130.852 57.3506 130.852 55.274 129.57 53.9924C128.288 52.7107 126.212 52.7107 124.93 53.9924L118.367 60.5549C117.086 61.8365 117.086 63.9131 118.367 65.1948C119.649 66.4767 121.726 66.4767 123.007 65.1948ZM140.375 46.3125C142.187 46.3125 143.656 44.8434 143.656 43.0312C143.656 41.2191 142.187 39.75 140.375 39.75C138.563 39.75 137.094 41.2191 137.094 43.0312C137.094 44.8434 138.563 46.3125 140.375 46.3125ZM117.406 75.8437C117.406 74.0316 115.937 72.5625 114.125 72.5625C112.313 72.5625 110.844 74.0316 110.844 75.8437C110.844 77.6559 112.313 79.125 114.125 79.125C115.937 79.125 117.406 77.6559 117.406 75.8437ZM192.875 72.5625C191.063 72.5625 189.594 74.0316 189.594 75.8437C189.594 77.6559 191.063 79.125 192.875 79.125C194.687 79.125 196.156 77.6559 196.156 75.8437C196.156 74.0316 194.687 72.5625 192.875 72.5625Z" fill="white"/>
</g>
<path d="M96.6266 193H105.911V190.14H100.059V187.082H104.877V184.222H100.059V181.538H105.691V178.678H96.6266V193ZM108.458 193H111.846V185.674C112.528 185.058 112.99 184.684 113.76 184.684C114.64 184.684 115.036 185.146 115.036 186.664V193H118.446V186.224C118.446 183.496 117.434 181.802 115.058 181.802C113.562 181.802 112.462 182.55 111.56 183.43H111.472L111.23 182.066H108.458V193ZM120.541 197.268C123.621 197.268 124.545 195.178 124.545 192.758V182.066H121.135V192.868C121.135 194.078 120.849 194.584 119.991 194.584C119.727 194.584 119.463 194.54 119.155 194.452L118.561 196.96C119.023 197.136 119.595 197.268 120.541 197.268ZM122.851 180.526C123.973 180.526 124.765 179.844 124.765 178.766C124.765 177.71 123.973 177.028 122.851 177.028C121.729 177.028 120.937 177.71 120.937 178.766C120.937 179.844 121.729 180.526 122.851 180.526ZM132.052 193.264C134.846 193.264 137.42 191.152 137.42 187.522C137.42 183.892 134.846 181.802 132.052 181.802C129.28 181.802 126.706 183.892 126.706 187.522C126.706 191.152 129.28 193.264 132.052 193.264ZM132.052 190.514C130.776 190.514 130.182 189.348 130.182 187.522C130.182 185.718 130.776 184.53 132.052 184.53C133.328 184.53 133.922 185.718 133.922 187.522C133.922 189.348 133.328 190.514 132.052 190.514ZM140.716 197.224C143.334 197.224 144.5 195.838 145.578 193.022L149.34 182.066H146.084L144.83 186.598C144.544 187.632 144.324 188.666 144.082 189.7H143.994C143.708 188.622 143.466 187.61 143.158 186.598L141.662 182.066H138.252L142.454 192.692L142.3 193.22C142.036 194.012 141.508 194.562 140.452 194.562C140.232 194.562 140.078 194.54 139.726 194.452L139.132 196.96C139.572 197.136 140.012 197.224 140.716 197.224ZM155.402 193H158.79V185.674C159.45 185.014 160.044 184.684 160.55 184.684C161.43 184.684 161.826 185.146 161.826 186.664V193H165.236V185.674C165.896 185.014 166.468 184.684 166.996 184.684C167.854 184.684 168.272 185.146 168.272 186.664V193H171.66V186.224C171.66 183.496 170.604 181.802 168.228 181.802C166.776 181.802 165.764 182.638 164.818 183.606C164.268 182.44 163.322 181.802 161.804 181.802C160.352 181.802 159.384 182.55 158.504 183.43H158.416L158.174 182.066H155.402V193ZM179.279 193.264C180.577 193.264 182.073 192.846 183.217 192.032L182.117 189.986C181.347 190.426 180.555 190.668 179.763 190.668C178.377 190.668 177.343 190.03 177.035 188.556H183.481C183.547 188.248 183.613 187.676 183.613 187.06C183.613 184.09 182.073 181.802 178.905 181.802C176.287 181.802 173.735 183.98 173.735 187.522C173.735 191.174 176.155 193.264 179.279 193.264ZM176.991 186.268C177.211 184.992 178.025 184.376 178.993 184.376C180.225 184.376 180.709 185.19 180.709 186.268H176.991ZM188.316 193.264C189.548 193.264 190.538 192.714 191.44 191.9H191.528L191.77 193H194.542V186.796C194.542 183.364 192.958 181.802 190.142 181.802C188.426 181.802 186.864 182.352 185.434 183.232L186.622 185.432C187.722 184.816 188.602 184.508 189.482 184.508C190.604 184.508 191.066 185.036 191.154 185.938C186.842 186.378 185.06 187.632 185.06 189.942C185.06 191.768 186.314 193.264 188.316 193.264ZM189.482 190.624C188.734 190.624 188.316 190.316 188.316 189.678C188.316 188.908 188.976 188.314 191.154 188.028V189.766C190.626 190.294 190.164 190.624 189.482 190.624ZM200.312 193.264C201.06 193.264 201.632 193.132 202.006 192.978L201.61 190.47C201.434 190.514 201.346 190.514 201.214 190.514C200.95 190.514 200.598 190.294 200.598 189.59V177.622H197.21V189.458C197.21 191.746 197.98 193.264 200.312 193.264ZM206.869 193.264C209.839 193.264 211.423 191.702 211.423 189.7C211.423 187.896 210.103 186.906 208.431 186.378C207.045 185.938 206.429 185.674 206.429 185.102C206.429 184.618 206.803 184.31 207.595 184.31C208.343 184.31 209.157 184.53 209.949 185.102L211.401 183.188C210.455 182.396 209.091 181.802 207.485 181.802C204.933 181.802 203.261 183.188 203.261 185.256C203.261 186.95 204.581 187.94 206.143 188.512C207.309 188.952 208.233 189.238 208.233 189.898C208.233 190.426 207.859 190.756 206.935 190.756C206.077 190.756 205.087 190.492 204.075 189.7L202.645 191.614C203.745 192.692 205.417 193.264 206.869 193.264Z" fill="#434343"/>
<path d="M7.68945 228H6.19531V215.15H13.3584V216.478H7.68945V221.18H13.0156V222.507H7.68945V228ZM23.5889 223.175C23.5889 224.745 23.1934 225.973 22.4023 226.857C21.6113 227.736 20.5186 228.176 19.124 228.176C18.2627 228.176 17.498 227.974 16.8301 227.569C16.1621 227.165 15.6465 226.585 15.2832 225.829C14.9199 225.073 14.7383 224.188 14.7383 223.175C14.7383 221.604 15.1309 220.383 15.916 219.51C16.7012 218.631 17.791 218.191 19.1855 218.191C20.5332 218.191 21.6025 218.64 22.3936 219.536C23.1904 220.433 23.5889 221.646 23.5889 223.175ZM16.25 223.175C16.25 224.405 16.4961 225.343 16.9883 225.987C17.4805 226.632 18.2041 226.954 19.1592 226.954C20.1143 226.954 20.8379 226.635 21.3301 225.996C21.8281 225.352 22.0771 224.411 22.0771 223.175C22.0771 221.95 21.8281 221.021 21.3301 220.389C20.8379 219.75 20.1084 219.431 19.1416 219.431C18.1865 219.431 17.4658 219.744 16.9795 220.371C16.4932 220.998 16.25 221.933 16.25 223.175ZM34.4697 223.175C34.4697 224.745 34.0742 225.973 33.2832 226.857C32.4922 227.736 31.3994 228.176 30.0049 228.176C29.1436 228.176 28.3789 227.974 27.7109 227.569C27.043 227.165 26.5273 226.585 26.1641 225.829C25.8008 225.073 25.6191 224.188 25.6191 223.175C25.6191 221.604 26.0117 220.383 26.7969 219.51C27.582 218.631 28.6719 218.191 30.0664 218.191C31.4141 218.191 32.4834 218.64 33.2744 219.536C34.0713 220.433 34.4697 221.646 34.4697 223.175ZM27.1309 223.175C27.1309 224.405 27.377 225.343 27.8691 225.987C28.3613 226.632 29.085 226.954 30.04 226.954C30.9951 226.954 31.7188 226.635 32.2109 225.996C32.709 225.352 32.958 224.411 32.958 223.175C32.958 221.95 32.709 221.021 32.2109 220.389C31.7188 219.75 30.9893 219.431 30.0225 219.431C29.0674 219.431 28.3467 219.744 27.8604 220.371C27.374 220.998 27.1309 221.933 27.1309 223.175ZM43.5928 226.708H43.5137C42.8398 227.687 41.832 228.176 40.4902 228.176C39.2305 228.176 38.249 227.745 37.5459 226.884C36.8486 226.022 36.5 224.798 36.5 223.21C36.5 221.622 36.8516 220.389 37.5547 219.51C38.2578 218.631 39.2363 218.191 40.4902 218.191C41.7969 218.191 42.7988 218.666 43.4961 219.615H43.6104L43.5488 218.921L43.5137 218.244V214.324H44.9727V228H43.7861L43.5928 226.708ZM40.6748 226.954C41.6709 226.954 42.3916 226.685 42.8369 226.146C43.2881 225.601 43.5137 224.725 43.5137 223.518V223.21C43.5137 221.845 43.2852 220.872 42.8281 220.292C42.377 219.706 41.6533 219.413 40.6572 219.413C39.8018 219.413 39.1455 219.747 38.6885 220.415C38.2373 221.077 38.0117 222.015 38.0117 223.228C38.0117 224.458 38.2373 225.387 38.6885 226.014C39.1396 226.641 39.8018 226.954 40.6748 226.954ZM54.21 228H52.751V218.367H54.21V228ZM52.6279 215.757C52.6279 215.423 52.71 215.18 52.874 215.027C53.0381 214.869 53.2432 214.79 53.4893 214.79C53.7236 214.79 53.9258 214.869 54.0957 215.027C54.2656 215.186 54.3506 215.429 54.3506 215.757C54.3506 216.085 54.2656 216.331 54.0957 216.495C53.9258 216.653 53.7236 216.732 53.4893 216.732C53.2432 216.732 53.0381 216.653 52.874 216.495C52.71 216.331 52.6279 216.085 52.6279 215.757ZM63.5176 225.372C63.5176 226.269 63.1836 226.96 62.5156 227.446C61.8477 227.933 60.9102 228.176 59.7031 228.176C58.4258 228.176 57.4297 227.974 56.7148 227.569V226.216C57.1777 226.45 57.6729 226.635 58.2002 226.77C58.7334 226.904 59.2461 226.972 59.7383 226.972C60.5 226.972 61.0859 226.852 61.4961 226.611C61.9062 226.365 62.1113 225.993 62.1113 225.495C62.1113 225.12 61.9473 224.801 61.6191 224.537C61.2969 224.268 60.6641 223.951 59.7207 223.588C58.8242 223.254 58.1855 222.964 57.8047 222.718C57.4297 222.466 57.1484 222.182 56.9609 221.865C56.7793 221.549 56.6885 221.171 56.6885 220.731C56.6885 219.946 57.0078 219.328 57.6465 218.877C58.2852 218.42 59.1611 218.191 60.2744 218.191C61.3115 218.191 62.3252 218.402 63.3154 218.824L62.7969 220.011C61.8301 219.612 60.9541 219.413 60.1689 219.413C59.4775 219.413 58.9561 219.521 58.6045 219.738C58.2529 219.955 58.0771 220.254 58.0771 220.635C58.0771 220.893 58.1416 221.112 58.2705 221.294C58.4053 221.476 58.6191 221.648 58.9121 221.812C59.2051 221.977 59.7676 222.214 60.5996 222.524C61.7422 222.94 62.5127 223.359 62.9111 223.781C63.3154 224.203 63.5176 224.733 63.5176 225.372ZM82.8535 228V221.733C82.8535 220.966 82.6895 220.392 82.3613 220.011C82.0332 219.624 81.5234 219.431 80.832 219.431C79.9238 219.431 79.2529 219.691 78.8193 220.213C78.3857 220.734 78.1689 221.537 78.1689 222.621V228H76.71V221.733C76.71 220.966 76.5459 220.392 76.2178 220.011C75.8896 219.624 75.377 219.431 74.6797 219.431C73.7656 219.431 73.0947 219.706 72.667 220.257C72.2451 220.802 72.0342 221.698 72.0342 222.946V228H70.5752V218.367H71.7617L71.999 219.686H72.0693C72.3447 219.217 72.7314 218.851 73.2295 218.587C73.7334 218.323 74.2959 218.191 74.917 218.191C76.4229 218.191 77.4072 218.736 77.8701 219.826H77.9404C78.2275 219.322 78.6436 218.924 79.1885 218.631C79.7334 218.338 80.3545 218.191 81.0518 218.191C82.1416 218.191 82.9561 218.473 83.4951 219.035C84.04 219.592 84.3125 220.485 84.3125 221.716V228H82.8535ZM93.251 228L92.9609 226.629H92.8906C92.4102 227.232 91.9297 227.643 91.4492 227.859C90.9746 228.07 90.3799 228.176 89.665 228.176C88.71 228.176 87.96 227.93 87.415 227.438C86.876 226.945 86.6064 226.245 86.6064 225.337C86.6064 223.392 88.1621 222.372 91.2734 222.278L92.9082 222.226V221.628C92.9082 220.872 92.7441 220.315 92.416 219.958C92.0938 219.595 91.5752 219.413 90.8604 219.413C90.0576 219.413 89.1494 219.659 88.1357 220.151L87.6875 219.035C88.1621 218.777 88.6807 218.575 89.2432 218.429C89.8115 218.282 90.3799 218.209 90.9482 218.209C92.0967 218.209 92.9463 218.464 93.4971 218.974C94.0537 219.483 94.332 220.301 94.332 221.426V228H93.251ZM89.9551 226.972C90.8633 226.972 91.5752 226.723 92.0908 226.225C92.6123 225.727 92.873 225.029 92.873 224.133V223.263L91.4141 223.324C90.2539 223.365 89.416 223.547 88.9004 223.869C88.3906 224.186 88.1357 224.681 88.1357 225.354C88.1357 225.882 88.2939 226.283 88.6104 226.559C88.9326 226.834 89.3809 226.972 89.9551 226.972ZM103.903 226.708H103.824C103.15 227.687 102.143 228.176 100.801 228.176C99.541 228.176 98.5596 227.745 97.8564 226.884C97.1592 226.022 96.8105 224.798 96.8105 223.21C96.8105 221.622 97.1621 220.389 97.8652 219.51C98.5684 218.631 99.5469 218.191 100.801 218.191C102.107 218.191 103.109 218.666 103.807 219.615H103.921L103.859 218.921L103.824 218.244V214.324H105.283V228H104.097L103.903 226.708ZM100.985 226.954C101.981 226.954 102.702 226.685 103.147 226.146C103.599 225.601 103.824 224.725 103.824 223.518V223.21C103.824 221.845 103.596 220.872 103.139 220.292C102.688 219.706 101.964 219.413 100.968 219.413C100.112 219.413 99.4561 219.747 98.999 220.415C98.5479 221.077 98.3223 222.015 98.3223 223.228C98.3223 224.458 98.5479 225.387 98.999 226.014C99.4502 226.641 100.112 226.954 100.985 226.954ZM112.455 228.176C111.031 228.176 109.906 227.742 109.08 226.875C108.26 226.008 107.85 224.804 107.85 223.263C107.85 221.71 108.23 220.477 108.992 219.562C109.76 218.648 110.788 218.191 112.077 218.191C113.284 218.191 114.239 218.59 114.942 219.387C115.646 220.178 115.997 221.224 115.997 222.524V223.447H109.361C109.391 224.578 109.675 225.437 110.214 226.022C110.759 226.608 111.523 226.901 112.508 226.901C113.545 226.901 114.57 226.685 115.584 226.251V227.552C115.068 227.774 114.579 227.933 114.116 228.026C113.659 228.126 113.105 228.176 112.455 228.176ZM112.06 219.413C111.286 219.413 110.668 219.665 110.205 220.169C109.748 220.673 109.479 221.37 109.396 222.261H114.433C114.433 221.341 114.228 220.638 113.817 220.151C113.407 219.659 112.821 219.413 112.06 219.413ZM129.093 228L128.803 226.629H128.732C128.252 227.232 127.771 227.643 127.291 227.859C126.816 228.07 126.222 228.176 125.507 228.176C124.552 228.176 123.802 227.93 123.257 227.438C122.718 226.945 122.448 226.245 122.448 225.337C122.448 223.392 124.004 222.372 127.115 222.278L128.75 222.226V221.628C128.75 220.872 128.586 220.315 128.258 219.958C127.936 219.595 127.417 219.413 126.702 219.413C125.899 219.413 124.991 219.659 123.978 220.151L123.529 219.035C124.004 218.777 124.522 218.575 125.085 218.429C125.653 218.282 126.222 218.209 126.79 218.209C127.938 218.209 128.788 218.464 129.339 218.974C129.896 219.483 130.174 220.301 130.174 221.426V228H129.093ZM125.797 226.972C126.705 226.972 127.417 226.723 127.933 226.225C128.454 225.727 128.715 225.029 128.715 224.133V223.263L127.256 223.324C126.096 223.365 125.258 223.547 124.742 223.869C124.232 224.186 123.978 224.681 123.978 225.354C123.978 225.882 124.136 226.283 124.452 226.559C124.774 226.834 125.223 226.972 125.797 226.972ZM139.78 228V221.769C139.78 220.983 139.602 220.397 139.244 220.011C138.887 219.624 138.327 219.431 137.565 219.431C136.558 219.431 135.819 219.703 135.351 220.248C134.882 220.793 134.647 221.692 134.647 222.946V228H133.188V218.367H134.375L134.612 219.686H134.683C134.981 219.211 135.4 218.845 135.939 218.587C136.479 218.323 137.079 218.191 137.741 218.191C138.901 218.191 139.774 218.473 140.36 219.035C140.946 219.592 141.239 220.485 141.239 221.716V228H139.78ZM150.802 226.708H150.723C150.049 227.687 149.041 228.176 147.699 228.176C146.439 228.176 145.458 227.745 144.755 226.884C144.058 226.022 143.709 224.798 143.709 223.21C143.709 221.622 144.061 220.389 144.764 219.51C145.467 218.631 146.445 218.191 147.699 218.191C149.006 218.191 150.008 218.666 150.705 219.615H150.819L150.758 218.921L150.723 218.244V214.324H152.182V228H150.995L150.802 226.708ZM147.884 226.954C148.88 226.954 149.601 226.685 150.046 226.146C150.497 225.601 150.723 224.725 150.723 223.518V223.21C150.723 221.845 150.494 220.872 150.037 220.292C149.586 219.706 148.862 219.413 147.866 219.413C147.011 219.413 146.354 219.747 145.897 220.415C145.446 221.077 145.221 222.015 145.221 223.228C145.221 224.458 145.446 225.387 145.897 226.014C146.349 226.641 147.011 226.954 147.884 226.954ZM166.517 226.708H166.438C165.764 227.687 164.756 228.176 163.414 228.176C162.154 228.176 161.173 227.745 160.47 226.884C159.772 226.022 159.424 224.798 159.424 223.21C159.424 221.622 159.775 220.389 160.479 219.51C161.182 218.631 162.16 218.191 163.414 218.191C164.721 218.191 165.723 218.666 166.42 219.615H166.534L166.473 218.921L166.438 218.244V214.324H167.896V228H166.71L166.517 226.708ZM163.599 226.954C164.595 226.954 165.315 226.685 165.761 226.146C166.212 225.601 166.438 224.725 166.438 223.518V223.21C166.438 221.845 166.209 220.872 165.752 220.292C165.301 219.706 164.577 219.413 163.581 219.413C162.726 219.413 162.069 219.747 161.612 220.415C161.161 221.077 160.936 222.015 160.936 223.228C160.936 224.458 161.161 225.387 161.612 226.014C162.063 226.641 162.726 226.954 163.599 226.954ZM175.068 228.176C173.645 228.176 172.52 227.742 171.693 226.875C170.873 226.008 170.463 224.804 170.463 223.263C170.463 221.71 170.844 220.477 171.605 219.562C172.373 218.648 173.401 218.191 174.69 218.191C175.897 218.191 176.853 218.59 177.556 219.387C178.259 220.178 178.61 221.224 178.61 222.524V223.447H171.975C172.004 224.578 172.288 225.437 172.827 226.022C173.372 226.608 174.137 226.901 175.121 226.901C176.158 226.901 177.184 226.685 178.197 226.251V227.552C177.682 227.774 177.192 227.933 176.729 228.026C176.272 228.126 175.719 228.176 175.068 228.176ZM174.673 219.413C173.899 219.413 173.281 219.665 172.818 220.169C172.361 220.673 172.092 221.37 172.01 222.261H177.046C177.046 221.341 176.841 220.638 176.431 220.151C176.021 219.659 175.435 219.413 174.673 219.413ZM182.565 228H181.106V214.324H182.565V228ZM187.118 228H185.659V218.367H187.118V228ZM185.536 215.757C185.536 215.423 185.618 215.18 185.782 215.027C185.946 214.869 186.151 214.79 186.397 214.79C186.632 214.79 186.834 214.869 187.004 215.027C187.174 215.186 187.259 215.429 187.259 215.757C187.259 216.085 187.174 216.331 187.004 216.495C186.834 216.653 186.632 216.732 186.397 216.732C186.151 216.732 185.946 216.653 185.782 216.495C185.618 216.331 185.536 216.085 185.536 215.757ZM192.321 228L188.665 218.367H190.229L192.304 224.08C192.772 225.416 193.048 226.283 193.13 226.682H193.2C193.265 226.371 193.467 225.729 193.807 224.757C194.152 223.778 194.923 221.648 196.118 218.367H197.683L194.026 228H192.321ZM203.299 228.176C201.875 228.176 200.75 227.742 199.924 226.875C199.104 226.008 198.693 224.804 198.693 223.263C198.693 221.71 199.074 220.477 199.836 219.562C200.604 218.648 201.632 218.191 202.921 218.191C204.128 218.191 205.083 218.59 205.786 219.387C206.489 220.178 206.841 221.224 206.841 222.524V223.447H200.205C200.234 224.578 200.519 225.437 201.058 226.022C201.603 226.608 202.367 226.901 203.352 226.901C204.389 226.901 205.414 226.685 206.428 226.251V227.552C205.912 227.774 205.423 227.933 204.96 228.026C204.503 228.126 203.949 228.176 203.299 228.176ZM202.903 219.413C202.13 219.413 201.512 219.665 201.049 220.169C200.592 220.673 200.322 221.37 200.24 222.261H205.276C205.276 221.341 205.071 220.638 204.661 220.151C204.251 219.659 203.665 219.413 202.903 219.413ZM213.731 218.191C214.159 218.191 214.543 218.227 214.883 218.297L214.681 219.65C214.282 219.562 213.931 219.519 213.626 219.519C212.847 219.519 212.179 219.835 211.622 220.468C211.071 221.101 210.796 221.889 210.796 222.832V228H209.337V218.367H210.541L210.708 220.151H210.778C211.136 219.524 211.566 219.041 212.07 218.701C212.574 218.361 213.128 218.191 213.731 218.191ZM220.754 228.176C219.33 228.176 218.205 227.742 217.379 226.875C216.559 226.008 216.148 224.804 216.148 223.263C216.148 221.71 216.529 220.477 217.291 219.562C218.059 218.648 219.087 218.191 220.376 218.191C221.583 218.191 222.538 218.59 223.241 219.387C223.944 220.178 224.296 221.224 224.296 222.524V223.447H217.66C217.689 224.578 217.974 225.437 218.513 226.022C219.058 226.608 219.822 226.901 220.807 226.901C221.844 226.901 222.869 226.685 223.883 226.251V227.552C223.367 227.774 222.878 227.933 222.415 228.026C221.958 228.126 221.404 228.176 220.754 228.176ZM220.358 219.413C219.585 219.413 218.967 219.665 218.504 220.169C218.047 220.673 217.777 221.37 217.695 222.261H222.731C222.731 221.341 222.526 220.638 222.116 220.151C221.706 219.659 221.12 219.413 220.358 219.413ZM233.349 226.708H233.27C232.596 227.687 231.588 228.176 230.246 228.176C228.986 228.176 228.005 227.745 227.302 226.884C226.604 226.022 226.256 224.798 226.256 223.21C226.256 221.622 226.607 220.389 227.311 219.51C228.014 218.631 228.992 218.191 230.246 218.191C231.553 218.191 232.555 218.666 233.252 219.615H233.366L233.305 218.921L233.27 218.244V214.324H234.729V228H233.542L233.349 226.708ZM230.431 226.954C231.427 226.954 232.147 226.685 232.593 226.146C233.044 225.601 233.27 224.725 233.27 223.518V223.21C233.27 221.845 233.041 220.872 232.584 220.292C232.133 219.706 231.409 219.413 230.413 219.413C229.558 219.413 228.901 219.747 228.444 220.415C227.993 221.077 227.768 222.015 227.768 223.228C227.768 224.458 227.993 225.387 228.444 226.014C228.896 226.641 229.558 226.954 230.431 226.954ZM249.063 226.708H248.984C248.311 227.687 247.303 228.176 245.961 228.176C244.701 228.176 243.72 227.745 243.017 226.884C242.319 226.022 241.971 224.798 241.971 223.21C241.971 221.622 242.322 220.389 243.025 219.51C243.729 218.631 244.707 218.191 245.961 218.191C247.268 218.191 248.27 218.666 248.967 219.615H249.081L249.02 218.921L248.984 218.244V214.324H250.443V228H249.257L249.063 226.708ZM246.146 226.954C247.142 226.954 247.862 226.685 248.308 226.146C248.759 225.601 248.984 224.725 248.984 223.518V223.21C248.984 221.845 248.756 220.872 248.299 220.292C247.848 219.706 247.124 219.413 246.128 219.413C245.272 219.413 244.616 219.747 244.159 220.415C243.708 221.077 243.482 222.015 243.482 223.228C243.482 224.458 243.708 225.387 244.159 226.014C244.61 226.641 245.272 226.954 246.146 226.954ZM255.005 228H253.546V218.367H255.005V228ZM253.423 215.757C253.423 215.423 253.505 215.18 253.669 215.027C253.833 214.869 254.038 214.79 254.284 214.79C254.519 214.79 254.721 214.869 254.891 215.027C255.061 215.186 255.146 215.429 255.146 215.757C255.146 216.085 255.061 216.331 254.891 216.495C254.721 216.653 254.519 216.732 254.284 216.732C254.038 216.732 253.833 216.653 253.669 216.495C253.505 216.331 253.423 216.085 253.423 215.757ZM262.493 218.191C262.921 218.191 263.305 218.227 263.645 218.297L263.442 219.65C263.044 219.562 262.692 219.519 262.388 219.519C261.608 219.519 260.94 219.835 260.384 220.468C259.833 221.101 259.558 221.889 259.558 222.832V228H258.099V218.367H259.303L259.47 220.151H259.54C259.897 219.524 260.328 219.041 260.832 218.701C261.336 218.361 261.89 218.191 262.493 218.191ZM269.516 228.176C268.092 228.176 266.967 227.742 266.141 226.875C265.32 226.008 264.91 224.804 264.91 223.263C264.91 221.71 265.291 220.477 266.053 219.562C266.82 218.648 267.849 218.191 269.138 218.191C270.345 218.191 271.3 218.59 272.003 219.387C272.706 220.178 273.058 221.224 273.058 222.524V223.447H266.422C266.451 224.578 266.735 225.437 267.274 226.022C267.819 226.608 268.584 226.901 269.568 226.901C270.605 226.901 271.631 226.685 272.645 226.251V227.552C272.129 227.774 271.64 227.933 271.177 228.026C270.72 228.126 270.166 228.176 269.516 228.176ZM269.12 219.413C268.347 219.413 267.729 219.665 267.266 220.169C266.809 220.673 266.539 221.37 266.457 222.261H271.493C271.493 221.341 271.288 220.638 270.878 220.151C270.468 219.659 269.882 219.413 269.12 219.413ZM279.403 228.176C278.009 228.176 276.928 227.748 276.16 226.893C275.398 226.031 275.018 224.815 275.018 223.245C275.018 221.634 275.404 220.389 276.178 219.51C276.957 218.631 278.064 218.191 279.5 218.191C279.963 218.191 280.426 218.241 280.889 218.341C281.352 218.44 281.715 218.558 281.979 218.692L281.53 219.932C281.208 219.803 280.856 219.697 280.476 219.615C280.095 219.527 279.758 219.483 279.465 219.483C277.508 219.483 276.529 220.731 276.529 223.228C276.529 224.411 276.767 225.319 277.241 225.952C277.722 226.585 278.431 226.901 279.368 226.901C280.171 226.901 280.994 226.729 281.838 226.383V227.675C281.193 228.009 280.382 228.176 279.403 228.176ZM287.243 226.972C287.501 226.972 287.75 226.954 287.99 226.919C288.23 226.878 288.421 226.837 288.562 226.796V227.912C288.403 227.988 288.169 228.05 287.858 228.097C287.554 228.149 287.278 228.176 287.032 228.176C285.169 228.176 284.237 227.194 284.237 225.231V219.501H282.857V218.798L284.237 218.191L284.853 216.135H285.696V218.367H288.491V219.501H285.696V225.17C285.696 225.75 285.834 226.195 286.109 226.506C286.385 226.816 286.763 226.972 287.243 226.972ZM291.954 228H290.495V214.324H291.954V228ZM293.519 218.367H295.083L297.192 223.86C297.655 225.114 297.942 226.02 298.054 226.576H298.124C298.2 226.277 298.358 225.768 298.599 225.047C298.845 224.32 299.642 222.094 300.989 218.367H302.554L298.414 229.336C298.004 230.42 297.523 231.188 296.973 231.639C296.428 232.096 295.757 232.324 294.96 232.324C294.515 232.324 294.075 232.274 293.642 232.175V231.006C293.964 231.076 294.324 231.111 294.723 231.111C295.725 231.111 296.439 230.549 296.867 229.424L297.403 228.053L293.519 218.367ZM98.8848 251.972C99.1426 251.972 99.3916 251.954 99.6318 251.919C99.8721 251.878 100.062 251.837 100.203 251.796V252.912C100.045 252.988 99.8105 253.05 99.5 253.097C99.1953 253.149 98.9199 253.176 98.6738 253.176C96.8105 253.176 95.8789 252.194 95.8789 250.231V244.501H94.499V243.798L95.8789 243.191L96.4941 241.135H97.3379V243.367H100.133V244.501H97.3379V250.17C97.3379 250.75 97.4756 251.195 97.751 251.506C98.0264 251.816 98.4043 251.972 98.8848 251.972ZM110.451 248.175C110.451 249.745 110.056 250.973 109.265 251.857C108.474 252.736 107.381 253.176 105.986 253.176C105.125 253.176 104.36 252.974 103.692 252.569C103.024 252.165 102.509 251.585 102.146 250.829C101.782 250.073 101.601 249.188 101.601 248.175C101.601 246.604 101.993 245.383 102.778 244.51C103.563 243.631 104.653 243.191 106.048 243.191C107.396 243.191 108.465 243.64 109.256 244.536C110.053 245.433 110.451 246.646 110.451 248.175ZM103.112 248.175C103.112 249.405 103.358 250.343 103.851 250.987C104.343 251.632 105.066 251.954 106.021 251.954C106.977 251.954 107.7 251.635 108.192 250.996C108.69 250.352 108.939 249.411 108.939 248.175C108.939 246.95 108.69 246.021 108.192 245.389C107.7 244.75 106.971 244.431 106.004 244.431C105.049 244.431 104.328 244.744 103.842 245.371C103.355 245.998 103.112 246.933 103.112 248.175ZM116.164 243.367H117.729L119.838 248.86C120.301 250.114 120.588 251.02 120.699 251.576H120.77C120.846 251.277 121.004 250.768 121.244 250.047C121.49 249.32 122.287 247.094 123.635 243.367H125.199L121.06 254.336C120.649 255.42 120.169 256.188 119.618 256.639C119.073 257.096 118.402 257.324 117.605 257.324C117.16 257.324 116.721 257.274 116.287 257.175V256.006C116.609 256.076 116.97 256.111 117.368 256.111C118.37 256.111 119.085 255.549 119.513 254.424L120.049 253.053L116.164 243.367ZM135.078 248.175C135.078 249.745 134.683 250.973 133.892 251.857C133.101 252.736 132.008 253.176 130.613 253.176C129.752 253.176 128.987 252.974 128.319 252.569C127.651 252.165 127.136 251.585 126.772 250.829C126.409 250.073 126.228 249.188 126.228 248.175C126.228 246.604 126.62 245.383 127.405 244.51C128.19 243.631 129.28 243.191 130.675 243.191C132.022 243.191 133.092 243.64 133.883 244.536C134.68 245.433 135.078 246.646 135.078 248.175ZM127.739 248.175C127.739 249.405 127.985 250.343 128.478 250.987C128.97 251.632 129.693 251.954 130.648 251.954C131.604 251.954 132.327 251.635 132.819 250.996C133.317 250.352 133.566 249.411 133.566 248.175C133.566 246.95 133.317 246.021 132.819 245.389C132.327 244.75 131.598 244.431 130.631 244.431C129.676 244.431 128.955 244.744 128.469 245.371C127.982 245.998 127.739 246.933 127.739 248.175ZM139.016 243.367V249.616C139.016 250.401 139.194 250.987 139.552 251.374C139.909 251.761 140.469 251.954 141.23 251.954C142.238 251.954 142.974 251.679 143.437 251.128C143.905 250.577 144.14 249.678 144.14 248.43V243.367H145.599V253H144.395L144.184 251.708H144.104C143.806 252.183 143.39 252.546 142.856 252.798C142.329 253.05 141.726 253.176 141.046 253.176C139.874 253.176 138.995 252.897 138.409 252.341C137.829 251.784 137.539 250.894 137.539 249.669V243.367H139.016ZM153.096 243.191C153.523 243.191 153.907 243.227 154.247 243.297L154.045 244.65C153.646 244.562 153.295 244.519 152.99 244.519C152.211 244.519 151.543 244.835 150.986 245.468C150.436 246.101 150.16 246.889 150.16 247.832V253H148.701V243.367H149.905L150.072 245.151H150.143C150.5 244.524 150.931 244.041 151.435 243.701C151.938 243.361 152.492 243.191 153.096 243.191ZM167.316 253V246.769C167.316 245.983 167.138 245.397 166.78 245.011C166.423 244.624 165.863 244.431 165.102 244.431C164.088 244.431 163.347 244.706 162.878 245.257C162.415 245.808 162.184 246.71 162.184 247.964V253H160.725V239.324H162.184V243.464C162.184 243.962 162.16 244.375 162.113 244.703H162.201C162.488 244.24 162.896 243.877 163.423 243.613C163.956 243.344 164.562 243.209 165.242 243.209C166.42 243.209 167.302 243.49 167.888 244.053C168.479 244.609 168.775 245.497 168.775 246.716V253H167.316ZM180.096 248.175C180.096 249.745 179.7 250.973 178.909 251.857C178.118 252.736 177.025 253.176 175.631 253.176C174.77 253.176 174.005 252.974 173.337 252.569C172.669 252.165 172.153 251.585 171.79 250.829C171.427 250.073 171.245 249.188 171.245 248.175C171.245 246.604 171.638 245.383 172.423 244.51C173.208 243.631 174.298 243.191 175.692 243.191C177.04 243.191 178.109 243.64 178.9 244.536C179.697 245.433 180.096 246.646 180.096 248.175ZM172.757 248.175C172.757 249.405 173.003 250.343 173.495 250.987C173.987 251.632 174.711 251.954 175.666 251.954C176.621 251.954 177.345 251.635 177.837 250.996C178.335 250.352 178.584 249.411 178.584 248.175C178.584 246.95 178.335 246.021 177.837 245.389C177.345 244.75 176.615 244.431 175.648 244.431C174.693 244.431 173.973 244.744 173.486 245.371C173 245.998 172.757 246.933 172.757 248.175ZM194.94 253V246.733C194.94 245.966 194.776 245.392 194.448 245.011C194.12 244.624 193.61 244.431 192.919 244.431C192.011 244.431 191.34 244.691 190.906 245.213C190.473 245.734 190.256 246.537 190.256 247.621V253H188.797V246.733C188.797 245.966 188.633 245.392 188.305 245.011C187.977 244.624 187.464 244.431 186.767 244.431C185.853 244.431 185.182 244.706 184.754 245.257C184.332 245.802 184.121 246.698 184.121 247.946V253H182.662V243.367H183.849L184.086 244.686H184.156C184.432 244.217 184.818 243.851 185.316 243.587C185.82 243.323 186.383 243.191 187.004 243.191C188.51 243.191 189.494 243.736 189.957 244.826H190.027C190.314 244.322 190.73 243.924 191.275 243.631C191.82 243.338 192.441 243.191 193.139 243.191C194.229 243.191 195.043 243.473 195.582 244.035C196.127 244.592 196.399 245.485 196.399 246.716V253H194.94ZM203.483 253.176C202.06 253.176 200.935 252.742 200.108 251.875C199.288 251.008 198.878 249.804 198.878 248.263C198.878 246.71 199.259 245.477 200.021 244.562C200.788 243.648 201.816 243.191 203.105 243.191C204.312 243.191 205.268 243.59 205.971 244.387C206.674 245.178 207.025 246.224 207.025 247.524V248.447H200.39C200.419 249.578 200.703 250.437 201.242 251.022C201.787 251.608 202.552 251.901 203.536 251.901C204.573 251.901 205.599 251.685 206.612 251.251V252.552C206.097 252.774 205.607 252.933 205.145 253.026C204.688 253.126 204.134 253.176 203.483 253.176ZM203.088 244.413C202.314 244.413 201.696 244.665 201.233 245.169C200.776 245.673 200.507 246.37 200.425 247.261H205.461C205.461 246.341 205.256 245.638 204.846 245.151C204.436 244.659 203.85 244.413 203.088 244.413ZM209.311 252.068C209.311 251.676 209.398 251.38 209.574 251.181C209.756 250.976 210.014 250.873 210.348 250.873C210.688 250.873 210.951 250.976 211.139 251.181C211.332 251.38 211.429 251.676 211.429 252.068C211.429 252.449 211.332 252.742 211.139 252.947C210.945 253.152 210.682 253.255 210.348 253.255C210.049 253.255 209.8 253.164 209.601 252.982C209.407 252.795 209.311 252.49 209.311 252.068Z" fill="#9E9E9E"/>
<defs>
<filter id="filter0_dd_403_1346" x="57.5" y="0" width="192" height="192" filterUnits="userSpaceOnUse" color-interpolation-filters="sRGB">
<feFlood flood-opacity="0" result="BackgroundImageFix"/>
<feColorMatrix in="SourceAlpha" type="matrix" values="0 0 0 0 0 0 0 0 0 0 0 0 0 0 0 0 0 0 127 0" result="hardAlpha"/>
<feOffset dy="20"/>
<feGaussianBlur stdDeviation="20"/>
<feColorMatrix type="matrix" values="0 0 0 0 1 0 0 0 0 0.680498 0 0 0 0 0 0 0 0 0.29 0"/>
<feBlend mode="normal" in2="BackgroundImageFix" result="effect1_dropShadow_403_1346"/>
<feColorMatrix in="SourceAlpha" type="matrix" values="0 0 0 0 0 0 0 0 0 0 0 0 0 0 0 0 0 0 127 0" result="hardAlpha"/>
<feOffset dy="5"/>
<feGaussianBlur stdDeviation="5"/>
<feColorMatrix type="matrix" values="0 0 0 0 1 0 0 0 0 0.680498 0 0 0 0 0 0 0 0 0.26 0"/>
<feBlend mode="normal" in2="effect1_dropShadow_403_1346" result="effect2_dropShadow_403_1346"/>
<feBlend mode="normal" in="SourceGraphic" in2="effect2_dropShadow_403_1346" result="shape"/>
</filter>
<linearGradient id="paint0_linear_403_1346" x1="153.5" y1="-21.5486" x2="153.5" y2="165.074" gradientUnits="userSpaceOnUse">
<stop stop-color="#FFAE00"/>
<stop offset="1" stop-color="#FFCD1E"/>
</linearGradient>
<linearGradient id="paint1_linear_403_1346" x1="153.5" y1="20" x2="153.5" y2="128.719" gradientUnits="userSpaceOnUse">
<stop stop-color="#FF9F00"/>
<stop offset="1" stop-color="#FFB800"/>
</linearGradient>
<linearGradient id="paint2_linear_403_1346" x1="153.5" y1="-21.5486" x2="153.5" y2="165.074" gradientUnits="userSpaceOnUse">
<stop offset="0.630208" stop-color="#FFAE00"/>
<stop offset="1" stop-color="#FFCD1E"/>
</linearGradient>
<linearGradient id="paint3_linear_403_1346" x1="153.5" y1="20" x2="153.5" y2="128.719" gradientUnits="userSpaceOnUse">
<stop stop-color="#FF9F00"/>
<stop offset="1" stop-color="#FFB800"/>
</linearGradient>
</defs>
</svg>
